<mxfile host="65bd71144e">
    <diagram id="YUQE4oJTY9K0E4pNmL3G" name="Page-1">
        <mxGraphModel dx="1130" dy="633" grid="1" gridSize="10" guides="1" tooltips="1" connect="1" arrows="1" fold="1" page="1" pageScale="1" pageWidth="850" pageHeight="1100" math="0" shadow="0">
            <root>
                <mxCell id="0"/>
                <mxCell id="1" parent="0"/>
                <mxCell id="2" value="Event Log&lt;br&gt;of ongoing cases" style="rounded=1;whiteSpace=wrap;html=1;" vertex="1" parent="1">
                    <mxGeometry x="70" y="120" width="120" height="60" as="geometry"/>
                </mxCell>
                <mxCell id="3" value="BPMN Model" style="rounded=1;whiteSpace=wrap;html=1;" vertex="1" parent="1">
                    <mxGeometry x="70" y="220" width="120" height="60" as="geometry"/>
                </mxCell>
                <mxCell id="5" value="Sort and Build Case Traces" style="rounded=1;whiteSpace=wrap;html=1;" vertex="1" parent="1">
                    <mxGeometry x="240" y="170" width="120" height="60" as="geometry"/>
                </mxCell>
                <mxCell id="6" value="Match Trace to BPMN Control-Flow" style="rounded=1;whiteSpace=wrap;html=1;" vertex="1" parent="1">
                    <mxGeometry x="400" y="170" width="120" height="60" as="geometry"/>
                </mxCell>
                <mxCell id="7" value="Refine Enablement Times, Start Times, and Resources" style="rounded=1;whiteSpace=wrap;html=1;" vertex="1" parent="1">
                    <mxGeometry x="560" y="170" width="120" height="60" as="geometry"/>
                </mxCell>
                <mxCell id="8" value="Process State" style="rounded=1;whiteSpace=wrap;html=1;" vertex="1" parent="1">
                    <mxGeometry x="740" y="170" width="120" height="60" as="geometry"/>
                </mxCell>
                <mxCell id="9" value="" style="endArrow=none;dashed=1;html=1;dashPattern=1 3;strokeWidth=2;" edge="1" parent="1">
                    <mxGeometry width="50" height="50" relative="1" as="geometry">
                        <mxPoint x="220" y="310" as="sourcePoint"/>
                        <mxPoint x="220" y="90" as="targetPoint"/>
                    </mxGeometry>
                </mxCell>
                <mxCell id="10" value="" style="endArrow=none;dashed=1;html=1;dashPattern=1 3;strokeWidth=2;" edge="1" parent="1">
                    <mxGeometry width="50" height="50" relative="1" as="geometry">
                        <mxPoint x="710" y="310" as="sourcePoint"/>
                        <mxPoint x="710" y="90" as="targetPoint"/>
                    </mxGeometry>
                </mxCell>
                <mxCell id="11" value="&lt;font style=&quot;font-size: 14px;&quot;&gt;Input&lt;/font&gt;" style="text;html=1;align=center;verticalAlign=middle;whiteSpace=wrap;rounded=0;" vertex="1" parent="1">
                    <mxGeometry x="100" y="310" width="60" height="30" as="geometry"/>
                </mxCell>
                <mxCell id="12" value="&lt;font style=&quot;font-size: 14px;&quot;&gt;Processing Steps&lt;/font&gt;" style="text;html=1;align=center;verticalAlign=middle;whiteSpace=wrap;rounded=0;" vertex="1" parent="1">
                    <mxGeometry x="400" y="310" width="120" height="30" as="geometry"/>
                </mxCell>
                <mxCell id="13" value="&lt;font style=&quot;font-size: 14px;&quot;&gt;Output&lt;/font&gt;" style="text;html=1;align=center;verticalAlign=middle;whiteSpace=wrap;rounded=0;" vertex="1" parent="1">
                    <mxGeometry x="770" y="310" width="60" height="30" as="geometry"/>
                </mxCell>
                <mxCell id="14" value="" style="endArrow=classic;html=1;exitX=1;exitY=0.5;exitDx=0;exitDy=0;entryX=0;entryY=0.5;entryDx=0;entryDy=0;" edge="1" parent="1" source="2" target="5">
                    <mxGeometry width="50" height="50" relative="1" as="geometry">
                        <mxPoint x="230" y="370" as="sourcePoint"/>
                        <mxPoint x="280" y="320" as="targetPoint"/>
                        <Array as="points">
                            <mxPoint x="220" y="150"/>
                            <mxPoint x="220" y="200"/>
                        </Array>
                    </mxGeometry>
                </mxCell>
                <mxCell id="15" value="" style="endArrow=classic;html=1;exitX=1;exitY=0.5;exitDx=0;exitDy=0;" edge="1" parent="1" source="3">
                    <mxGeometry width="50" height="50" relative="1" as="geometry">
                        <mxPoint x="360" y="420" as="sourcePoint"/>
                        <mxPoint x="240" y="200" as="targetPoint"/>
                        <Array as="points">
                            <mxPoint x="220" y="250"/>
                            <mxPoint x="220" y="200"/>
                        </Array>
                    </mxGeometry>
                </mxCell>
                <mxCell id="16" value="" style="endArrow=classic;html=1;exitX=1;exitY=0.5;exitDx=0;exitDy=0;entryX=0;entryY=0.5;entryDx=0;entryDy=0;" edge="1" parent="1" source="5" target="6">
                    <mxGeometry width="50" height="50" relative="1" as="geometry">
                        <mxPoint x="300" y="310" as="sourcePoint"/>
                        <mxPoint x="350" y="260" as="targetPoint"/>
                    </mxGeometry>
                </mxCell>
                <mxCell id="17" value="" style="endArrow=classic;html=1;exitX=1;exitY=0.5;exitDx=0;exitDy=0;entryX=0;entryY=0.5;entryDx=0;entryDy=0;" edge="1" parent="1" source="6" target="7">
                    <mxGeometry width="50" height="50" relative="1" as="geometry">
                        <mxPoint x="370" y="210" as="sourcePoint"/>
                        <mxPoint x="410" y="210" as="targetPoint"/>
                    </mxGeometry>
                </mxCell>
                <mxCell id="18" value="" style="endArrow=classic;html=1;exitX=1;exitY=0.5;exitDx=0;exitDy=0;entryX=0;entryY=0.5;entryDx=0;entryDy=0;" edge="1" parent="1" source="7" target="8">
                    <mxGeometry width="50" height="50" relative="1" as="geometry">
                        <mxPoint x="530" y="210" as="sourcePoint"/>
                        <mxPoint x="570" y="210" as="targetPoint"/>
                    </mxGeometry>
                </mxCell>
            </root>
        </mxGraphModel>
    </diagram>
</mxfile>